<svg xmlns="http://www.w3.org/2000/svg" viewBox="0 0 32 32" fill="#000000">
  <path d="M 0.5,4 a 3.5,3.5 0 1,0 7,0 a 3.5,3.5 0 1,0 -7,0 M 12.5,4 a 3.5,3.5 0 1,0 7,0 a 3.5,3.5 0 1,0 -7,0 M 24.5,4 a 3.5,3.5 0 1,0 7,0 a 3.5,3.5 0 1,0 -7,0 M 0.5,16 a 3.5,3.5 0 1,0 7,0 a 3.5,3.5 0 1,0 -7,0 M 12.5,16 a 3.5,3.5 0 1,0 7,0 a 3.5,3.5 0 1,0 -7,0 M 24.5,16 a 3.5,3.5 0 1,0 7,0 a 3.5,3.5 0 1,0 -7,0 M 0.5,28 a 3.5,3.5 0 1,0 7,0 a 3.5,3.5 0 1,0 -7,0 M 12.5,28 a 3.5,3.5 0 1,0 7,0 a 3.5,3.5 0 1,0 -7,0 M 24.5,28 a 3.5,3.5 0 1,0 7,0 a 3.5,3.5 0 1,0 -7,0" />
</svg>
