<?xml version="1.0" encoding="UTF-8"?>
<svg xmlns="http://www.w3.org/2000/svg" xmlns:xlink="http://www.w3.org/1999/xlink" width="32px" height="32px" viewBox="0 0 32 32" version="1.1">
<g id="surface1">
<path style=" stroke:none;fill-rule:nonzero;fill:rgb(0%,0%,0%);fill-opacity:1;" d="M 15.574219 0.453125 C 13.183594 0.738281 11.660156 3.261719 12.460938 5.609375 C 12.65625 6.183594 12.902344 6.582031 13.371094 7.058594 C 14.5625 8.285156 16.230469 8.566406 17.753906 7.804688 C 18.1875 7.585938 18.351562 7.46875 18.738281 7.0625 C 19.507812 6.28125 19.851562 5.421875 19.851562 4.3125 C 19.847656 3.628906 19.746094 3.183594 19.480469 2.605469 C 18.785156 1.136719 17.195312 0.257812 15.574219 0.453125 Z M 15.574219 0.453125 "/>
<path style=" stroke:none;fill-rule:nonzero;fill:rgb(0%,0%,0%);fill-opacity:1;" d="M 3.414062 0.503906 C 2.746094 0.644531 1.894531 1.136719 1.429688 1.660156 C -0.519531 3.84375 0.453125 7.328125 3.234375 8.101562 C 3.472656 8.167969 3.785156 8.203125 4.191406 8.203125 C 4.597656 8.203125 4.910156 8.167969 5.152344 8.101562 C 6.425781 7.746094 7.371094 6.835938 7.820312 5.511719 C 7.949219 5.113281 7.96875 4.992188 7.972656 4.3125 C 7.972656 3.609375 7.960938 3.523438 7.804688 3.074219 C 7.242188 1.480469 5.796875 0.4375 4.167969 0.453125 C 3.878906 0.460938 3.539062 0.480469 3.414062 0.503906 Z M 3.414062 0.503906 "/>
<path style=" stroke:none;fill-rule:nonzero;fill:rgb(0%,0%,0%);fill-opacity:1;" d="M 27.042969 0.527344 C 25.703125 0.886719 24.722656 1.828125 24.289062 3.164062 C 24.164062 3.558594 24.140625 3.703125 24.140625 4.339844 C 24.140625 4.980469 24.164062 5.125 24.289062 5.519531 C 24.980469 7.652344 27.253906 8.765625 29.265625 7.972656 C 31.222656 7.191406 32.230469 4.878906 31.46875 2.914062 C 31.160156 2.128906 30.546875 1.382812 29.851562 0.964844 C 29.261719 0.605469 28.820312 0.488281 28.027344 0.46875 C 27.5625 0.460938 27.222656 0.476562 27.042969 0.527344 Z M 27.042969 0.527344 "/>
<path style=" stroke:none;fill-rule:nonzero;fill:rgb(0%,0%,0%);fill-opacity:1;" d="M 3.621094 12.21875 C 2.816406 12.359375 2.136719 12.71875 1.535156 13.332031 C 1.058594 13.820312 0.765625 14.296875 0.5625 14.929688 C 0.4375 15.316406 0.421875 15.472656 0.421875 16.078125 C 0.421875 16.683594 0.4375 16.839844 0.5625 17.226562 C 0.765625 17.859375 1.058594 18.335938 1.535156 18.824219 C 2.804688 20.132812 4.839844 20.324219 6.34375 19.28125 C 7.085938 18.765625 7.738281 17.777344 7.917969 16.890625 C 8.464844 14.203125 6.234375 11.777344 3.621094 12.21875 Z M 3.621094 12.21875 "/>
<path style=" stroke:none;fill-rule:nonzero;fill:rgb(0%,0%,0%);fill-opacity:1;" d="M 15.132812 12.261719 C 14.027344 12.542969 13.144531 13.289062 12.628906 14.371094 C 12.339844 14.984375 12.253906 15.382812 12.257812 16.078125 C 12.273438 18.96875 15.226562 20.816406 17.78125 19.523438 C 18.734375 19.046875 19.484375 18.078125 19.765625 16.976562 C 19.886719 16.488281 19.886719 15.550781 19.757812 15.070312 C 19.410156 13.699219 18.339844 12.617188 16.996094 12.261719 C 16.472656 12.128906 15.683594 12.128906 15.132812 12.261719 Z M 15.132812 12.261719 "/>
<path style=" stroke:none;fill-rule:nonzero;fill:rgb(0%,0%,0%);fill-opacity:1;" d="M 27.070312 12.246094 C 26.582031 12.351562 25.792969 12.761719 25.410156 13.109375 C 24.207031 14.210938 23.785156 15.972656 24.367188 17.480469 C 24.765625 18.515625 25.644531 19.382812 26.675781 19.746094 C 27.242188 19.957031 28.125 20 28.738281 19.859375 C 30.75 19.40625 32.054688 17.332031 31.636719 15.25 C 31.28125 13.457031 29.683594 12.144531 27.875 12.164062 C 27.628906 12.164062 27.265625 12.203125 27.070312 12.246094 Z M 27.070312 12.246094 "/>
<path style=" stroke:none;fill-rule:nonzero;fill:rgb(0%,0%,0%);fill-opacity:1;" d="M 15.480469 23.921875 C 14.601562 24.085938 13.957031 24.429688 13.34375 25.0625 C 12.300781 26.140625 11.972656 27.640625 12.460938 29.082031 C 12.65625 29.664062 12.902344 30.054688 13.398438 30.566406 C 14.554688 31.757812 16.242188 32.042969 17.726562 31.292969 C 18.5625 30.875 19.304688 30.050781 19.617188 29.203125 C 20.015625 28.113281 19.933594 26.929688 19.386719 25.867188 C 19.277344 25.648438 19.03125 25.339844 18.738281 25.042969 C 18.367188 24.65625 18.179688 24.515625 17.808594 24.332031 C 17.550781 24.203125 17.183594 24.054688 16.992188 24.003906 C 16.5625 23.894531 15.847656 23.855469 15.480469 23.921875 Z M 15.480469 23.921875 "/>
<path style=" stroke:none;fill-rule:nonzero;fill:rgb(0%,0%,0%);fill-opacity:1;" d="M 27.507812 23.925781 C 26.625 24.011719 25.921875 24.359375 25.25 25.042969 C 24.855469 25.449219 24.738281 25.613281 24.527344 26.054688 C 23.976562 27.214844 23.976562 28.425781 24.527344 29.539062 C 24.996094 30.5 25.738281 31.152344 26.765625 31.519531 C 27.152344 31.660156 27.289062 31.675781 27.890625 31.675781 C 28.503906 31.679688 28.625 31.664062 29.0625 31.519531 C 29.902344 31.238281 30.691406 30.605469 31.132812 29.847656 C 32.105469 28.21875 31.839844 26.230469 30.488281 24.9375 C 29.683594 24.167969 28.648438 23.816406 27.507812 23.925781 Z M 27.507812 23.925781 "/>
<path style=" stroke:none;fill-rule:nonzero;fill:rgb(0%,0%,0%);fill-opacity:1;" d="M 3.234375 24.027344 C 2.167969 24.324219 1.304688 25.035156 0.828125 26.011719 C 0.1875 27.320312 0.257812 28.71875 1.035156 29.925781 C 1.867188 31.234375 3.464844 31.933594 4.925781 31.628906 C 6.679688 31.265625 7.902344 29.792969 7.984375 27.957031 C 8.015625 27.214844 7.917969 26.695312 7.617188 26.085938 C 7.101562 25.023438 6.253906 24.3125 5.160156 24.027344 C 4.625 23.886719 3.738281 23.886719 3.234375 24.027344 Z M 3.234375 24.027344 "/>
</g>
</svg>
